<svg version="1.1" viewBox="0.0 0.0 600.0 371.0" fill="none" stroke="none" stroke-linecap="square" stroke-miterlimit="10" width="600" height="371" xmlns:xlink="http://www.w3.org/1999/xlink" xmlns="http://www.w3.org/2000/svg"><path fill="#ffffff" d="M0 0L600.0 0L600.0 371.0L0 371.0L0 0Z" fill-rule="nonzero"/><path fill="#ffffff" d="M0 0L600.0 0L600.0 371.0L0 371.0L0 0Z" fill-rule="nonzero"/><path stroke="#333333" stroke-width="1.0" stroke-linecap="butt" d="M92.5 298.5L581.5 298.5" fill-rule="nonzero"/><path stroke="#cccccc" stroke-width="1.0" stroke-linecap="butt" d="M92.5 239.5L581.5 239.5" fill-rule="nonzero"/><path stroke="#cccccc" stroke-width="1.0" stroke-linecap="butt" d="M92.5 180.5L581.5 180.5" fill-rule="nonzero"/><path stroke="#cccccc" stroke-width="1.0" stroke-linecap="butt" d="M92.5 121.5L581.5 121.5" fill-rule="nonzero"/><path stroke="#cccccc" stroke-width="1.0" stroke-linecap="butt" d="M92.5 62.5L581.5 62.5" fill-rule="nonzero"/><clipPath id="id_0"><path d="M92.55 62.416668L581.45 62.416668L581.45 298.45L92.55 298.45L92.55 62.416668Z" clip-rule="nonzero"/></clipPath><path stroke="#000000" stroke-width="0.0" stroke-linecap="butt" stroke-opacity="0.0" clip-path="url(#id_0)" d="M127.0 298.0L105.0 298.0L105.0 253.0C105.0 251.89543 105.89543 251.0 107.0 251.0L125.0 251.0C126.10457 251.0 127.0 251.89543 127.0 253.0Z" fill-rule="nonzero"/><path fill="#4285f4" clip-path="url(#id_0)" d="M127.0 298.0L105.0 298.0L105.0 253.0C105.0 251.89543 105.89543 251.0 107.0 251.0L125.0 251.0C126.10457 251.0 127.0 251.89543 127.0 253.0Z" fill-rule="nonzero"/><path stroke="#000000" stroke-width="0.0" stroke-linecap="butt" stroke-opacity="0.0" clip-path="url(#id_0)" d="M161.0 298.0L139.0 298.0L139.0 161.0C139.0 159.89543 139.89543 159.0 141.0 159.0L159.0 159.0C160.10457 159.0 161.0 159.89543 161.0 161.0Z" fill-rule="nonzero"/><path fill="#4285f4" clip-path="url(#id_0)" d="M161.0 298.0L139.0 298.0L139.0 161.0C139.0 159.89543 139.89543 159.0 141.0 159.0L159.0 159.0C160.10457 159.0 161.0 159.89543 161.0 161.0Z" fill-rule="nonzero"/><path stroke="#000000" stroke-width="0.0" stroke-linecap="butt" stroke-opacity="0.0" clip-path="url(#id_0)" d="M195.0 298.0L173.0 298.0L173.0 89.0C173.0 87.89543 173.89543 87.0 175.0 87.0L193.0 87.0C194.10457 87.0 195.0 87.89543 195.0 89.0Z" fill-rule="nonzero"/><path fill="#4285f4" clip-path="url(#id_0)" d="M195.0 298.0L173.0 298.0L173.0 89.0C173.0 87.89543 173.89543 87.0 175.0 87.0L193.0 87.0C194.10457 87.0 195.0 87.89543 195.0 89.0Z" fill-rule="nonzero"/><path stroke="#000000" stroke-width="0.0" stroke-linecap="butt" stroke-opacity="0.0" clip-path="url(#id_0)" d="M229.0 298.0L207.0 298.0L207.0 87.0C207.0 85.89543 207.89543 85.0 209.0 85.0L227.0 85.0C228.10457 85.0 229.0 85.89543 229.0 87.0Z" fill-rule="nonzero"/><path fill="#4285f4" clip-path="url(#id_0)" d="M229.0 298.0L207.0 298.0L207.0 87.0C207.0 85.89543 207.89543 85.0 209.0 85.0L227.0 85.0C228.10457 85.0 229.0 85.89543 229.0 87.0Z" fill-rule="nonzero"/><path stroke="#000000" stroke-width="0.0" stroke-linecap="butt" stroke-opacity="0.0" clip-path="url(#id_0)" d="M263.0 298.0L241.0 298.0L241.0 141.0C241.0 139.89543 241.89543 139.0 243.0 139.0L261.0 139.0C262.10458 139.0 263.0 139.89543 263.0 141.0Z" fill-rule="nonzero"/><path fill="#4285f4" clip-path="url(#id_0)" d="M263.0 298.0L241.0 298.0L241.0 141.0C241.0 139.89543 241.89543 139.0 243.0 139.0L261.0 139.0C262.10458 139.0 263.0 139.89543 263.0 141.0Z" fill-rule="nonzero"/><path stroke="#000000" stroke-width="0.0" stroke-linecap="butt" stroke-opacity="0.0" clip-path="url(#id_0)" d="M297.0 298.0L275.0 298.0L275.0 206.0C275.0 204.89543 275.89542 204.0 277.0 204.0L295.0 204.0C296.10458 204.0 297.0 204.89543 297.0 206.0Z" fill-rule="nonzero"/><path fill="#4285f4" clip-path="url(#id_0)" d="M297.0 298.0L275.0 298.0L275.0 206.0C275.0 204.89543 275.89542 204.0 277.0 204.0L295.0 204.0C296.10458 204.0 297.0 204.89543 297.0 206.0Z" fill-rule="nonzero"/><path stroke="#000000" stroke-width="0.0" stroke-linecap="butt" stroke-opacity="0.0" clip-path="url(#id_0)" d="M331.0 298.0L309.0 298.0L309.0 253.0C309.0 251.89543 309.89542 251.0 311.0 251.0L329.0 251.0C330.10458 251.0 331.0 251.89543 331.0 253.0Z" fill-rule="nonzero"/><path fill="#4285f4" clip-path="url(#id_0)" d="M331.0 298.0L309.0 298.0L309.0 253.0C309.0 251.89543 309.89542 251.0 311.0 251.0L329.0 251.0C330.10458 251.0 331.0 251.89543 331.0 253.0Z" fill-rule="nonzero"/><path stroke="#000000" stroke-width="0.0" stroke-linecap="butt" stroke-opacity="0.0" clip-path="url(#id_0)" d="M365.0 298.0L343.0 298.0L343.0 280.0C343.0 278.89542 343.89542 278.0 345.0 278.0L363.0 278.0C364.10458 278.0 365.0 278.89542 365.0 280.0Z" fill-rule="nonzero"/><path fill="#4285f4" clip-path="url(#id_0)" d="M365.0 298.0L343.0 298.0L343.0 280.0C343.0 278.89542 343.89542 278.0 345.0 278.0L363.0 278.0C364.10458 278.0 365.0 278.89542 365.0 280.0Z" fill-rule="nonzero"/><path stroke="#000000" stroke-width="0.0" stroke-linecap="butt" stroke-opacity="0.0" clip-path="url(#id_0)" d="M399.0 298.0L377.0 298.0L377.0 293.0C377.0 291.89542 377.89542 291.0 379.0 291.0L397.0 291.0C398.10458 291.0 399.0 291.89542 399.0 293.0Z" fill-rule="nonzero"/><path fill="#4285f4" clip-path="url(#id_0)" d="M399.0 298.0L377.0 298.0L377.0 293.0C377.0 291.89542 377.89542 291.0 379.0 291.0L397.0 291.0C398.10458 291.0 399.0 291.89542 399.0 293.0Z" fill-rule="nonzero"/><path stroke="#000000" stroke-width="0.0" stroke-linecap="butt" stroke-opacity="0.0" clip-path="url(#id_0)" d="M433.0 298.0L411.0 298.0L411.0 297.0C411.0 296.44772 411.44772 296.0 412.0 296.0L432.0 296.0C432.55228 296.0 433.0 296.44772 433.0 297.0Z" fill-rule="nonzero"/><path fill="#4285f4" clip-path="url(#id_0)" d="M433.0 298.0L411.0 298.0L411.0 297.0C411.0 296.44772 411.44772 296.0 412.0 296.0L432.0 296.0C432.55228 296.0 433.0 296.44772 433.0 297.0Z" fill-rule="nonzero"/><path stroke="#000000" stroke-width="0.0" stroke-linecap="butt" stroke-opacity="0.0" clip-path="url(#id_0)" d="M467.0 298.0L445.0 298.0L445.0 298.0C445.0 298.0 445.0 298.0 445.0 298.0L467.0 298.0C467.0 298.0 467.0 298.0 467.0 298.0Z" fill-rule="nonzero"/><path fill="#4285f4" clip-path="url(#id_0)" d="M467.0 298.0L445.0 298.0L445.0 298.0C445.0 298.0 445.0 298.0 445.0 298.0L467.0 298.0C467.0 298.0 467.0 298.0 467.0 298.0Z" fill-rule="nonzero"/><path stroke="#000000" stroke-width="0.0" stroke-linecap="butt" stroke-opacity="0.0" clip-path="url(#id_0)" d="M501.0 298.0L479.0 298.0L479.0 298.0C479.0 298.0 479.0 298.0 479.0 298.0L501.0 298.0C501.0 298.0 501.0 298.0 501.0 298.0Z" fill-rule="nonzero"/><path fill="#4285f4" clip-path="url(#id_0)" d="M501.0 298.0L479.0 298.0L479.0 298.0C479.0 298.0 479.0 298.0 479.0 298.0L501.0 298.0C501.0 298.0 501.0 298.0 501.0 298.0Z" fill-rule="nonzero"/><path stroke="#000000" stroke-width="0.0" stroke-linecap="butt" stroke-opacity="0.0" clip-path="url(#id_0)" d="M535.0 298.0L513.0 298.0L513.0 298.0C513.0 298.0 513.0 298.0 513.0 298.0L535.0 298.0C535.0 298.0 535.0 298.0 535.0 298.0Z" fill-rule="nonzero"/><path fill="#4285f4" clip-path="url(#id_0)" d="M535.0 298.0L513.0 298.0L513.0 298.0C513.0 298.0 513.0 298.0 513.0 298.0L535.0 298.0C535.0 298.0 535.0 298.0 535.0 298.0Z" fill-rule="nonzero"/><path stroke="#000000" stroke-width="0.0" stroke-linecap="butt" stroke-opacity="0.0" clip-path="url(#id_0)" d="M569.0 298.0L547.0 298.0L547.0 298.0C547.0 298.0 547.0 298.0 547.0 298.0L569.0 298.0C569.0 298.0 569.0 298.0 569.0 298.0Z" fill-rule="nonzero"/><path fill="#4285f4" clip-path="url(#id_0)" d="M569.0 298.0L547.0 298.0L547.0 298.0C547.0 298.0 547.0 298.0 547.0 298.0L569.0 298.0C569.0 298.0 569.0 298.0 569.0 298.0Z" fill-rule="nonzero"/><path fill="#424242" d="M316.39062 341.84064L313.64062 341.84064L313.64062 349.45L312.53125 349.45L312.53125 341.84064L309.78125 341.84064L309.78125 340.91876L316.39062 340.91876L316.39062 341.84064ZM321.23438 349.45Q321.14062 349.2625 321.07812 348.77814Q320.32812 349.575 319.28125 349.575Q318.34375 349.575 317.73438 349.04376Q317.14062 348.5125 317.14062 347.6844Q317.14062 346.7 317.89062 346.15314Q318.64062 345.60626 320.01562 345.60626L321.0625 345.60626L321.0625 345.10626Q321.0625 344.54376 320.71875 344.21564Q320.39062 343.8719 319.71875 343.8719Q319.14062 343.8719 318.75 344.16876Q318.35938 344.45 318.35938 344.8719L317.26562 344.8719Q317.26562 344.3875 317.59375 343.95Q317.9375 343.5125 318.51562 343.2625Q319.09375 342.9969 319.78125 342.9969Q320.89062 342.9969 321.5 343.54376Q322.125 344.09064 322.15625 345.04376L322.15625 347.96564Q322.15625 348.84064 322.375 349.35626L322.375 349.45L321.23438 349.45ZM319.4375 348.6219Q319.95312 348.6219 320.40625 348.35626Q320.85938 348.09064 321.0625 347.66876L321.0625 346.3719L320.21875 346.3719Q318.21875 346.3719 318.21875 347.54376Q318.21875 348.04376 318.5625 348.34064Q318.90625 348.6219 319.4375 348.6219ZM324.0625 346.23126Q324.0625 344.7469 324.75 343.8719Q325.4375 342.9969 326.5625 342.9969Q327.71875 342.9969 328.375 343.8094L328.42188 343.10626L329.42188 343.10626L329.42188 349.29376Q329.42188 350.52814 328.6875 351.23126Q327.95312 351.95 326.73438 351.95Q326.04688 351.95 325.39062 351.65314Q324.73438 351.35626 324.39062 350.85626L324.95312 350.2Q325.64062 351.0594 326.65625 351.0594Q327.4375 351.0594 327.875 350.60626Q328.32812 350.16876 328.32812 349.35626L328.32812 348.8094Q327.67188 349.575 326.54688 349.575Q325.4375 349.575 324.75 348.6844Q324.0625 347.77814 324.0625 346.23126ZM325.15625 346.35626Q325.15625 347.41876 325.59375 348.04376Q326.03125 348.65314 326.82812 348.65314Q327.84375 348.65314 328.32812 347.71564L328.32812 344.825Q327.82812 343.91876 326.82812 343.91876Q326.04688 343.91876 325.59375 344.52814Q325.15625 345.1375 325.15625 346.35626ZM336.85938 348.6844Q337.4375 348.6844 337.875 348.34064Q338.3125 347.98126 338.35938 347.45L339.39062 347.45Q339.35938 347.9969 339.0 348.4969Q338.65625 348.98126 338.07812 349.27814Q337.51562 349.575 336.85938 349.575Q335.5625 349.575 334.79688 348.71564Q334.04688 347.84064 334.04688 346.34064L334.04688 346.15314Q334.04688 345.23126 334.375 344.5125Q334.71875 343.79376 335.34375 343.40314Q335.98438 342.9969 336.85938 342.9969Q337.92188 342.9969 338.625 343.6375Q339.34375 344.2625 339.39062 345.29376L338.35938 345.29376Q338.3125 344.66876 337.89062 344.27814Q337.46875 343.8875 336.85938 343.8875Q336.03125 343.8875 335.57812 344.48126Q335.125 345.075 335.125 346.2L335.125 346.40314Q335.125 347.4969 335.57812 348.09064Q336.03125 348.6844 336.85938 348.6844ZM340.03125 346.21564Q340.03125 345.29376 340.39062 344.54376Q340.76562 343.79376 341.42188 343.40314Q342.07812 342.9969 342.90625 342.9969Q344.20312 342.9969 345.0 343.8875Q345.8125 344.77814 345.8125 346.27814L345.8125 346.35626Q345.8125 347.27814 345.45312 348.0125Q345.09375 348.7469 344.4375 349.16876Q343.78125 349.575 342.92188 349.575Q341.64062 349.575 340.82812 348.6844Q340.03125 347.77814 340.03125 346.29376L340.03125 346.21564ZM341.125 346.35626Q341.125 347.40314 341.60938 348.04376Q342.10938 348.6844 342.92188 348.6844Q343.75 348.6844 344.23438 348.04376Q344.71875 347.3875 344.71875 346.21564Q344.71875 345.1844 344.21875 344.54376Q343.73438 343.8875 342.90625 343.8875Q342.10938 343.8875 341.60938 344.52814Q341.125 345.15314 341.125 346.35626ZM351.23438 348.825Q350.60938 349.575 349.375 349.575Q348.35938 349.575 347.82812 348.98126Q347.29688 348.3875 347.29688 347.23126L347.29688 343.10626L348.375 343.10626L348.375 347.2Q348.375 348.65314 349.54688 348.65314Q350.79688 348.65314 351.20312 347.71564L351.20312 343.10626L352.29688 343.10626L352.29688 349.45L351.26562 349.45L351.23438 348.825ZM355.34375 343.10626L355.375 343.90314Q356.10938 342.9969 357.28125 342.9969Q359.29688 342.9969 359.3125 345.2625L359.3125 349.45L358.21875 349.45L358.21875 345.2469Q358.21875 344.575 357.90625 344.2469Q357.60938 343.91876 356.95312 343.91876Q356.42188 343.91876 356.01562 344.2Q355.625 344.48126 355.40625 344.9344L355.40625 349.45L354.32812 349.45L354.32812 343.10626L355.34375 343.10626ZM362.79688 341.575L362.79688 343.10626L363.96875 343.10626L363.96875 343.95L362.79688 343.95L362.79688 347.8719Q362.79688 348.2625 362.95312 348.45Q363.10938 348.6375 363.48438 348.6375Q363.67188 348.6375 364.0 348.575L364.0 349.45Q363.57812 349.575 363.17188 349.575Q362.45312 349.575 362.07812 349.1375Q361.70312 348.6844 361.70312 347.8719L361.70312 343.95L360.54688 343.95L360.54688 343.10626L361.70312 343.10626L361.70312 341.575L362.79688 341.575Z" fill-rule="nonzero"/><path fill="#424242" d="M30.550013 229.13646L30.550013 230.26146L23.971888 234.55833L30.550013 234.55833L30.550013 235.69896L22.018763 235.69896L22.018763 234.55833L28.628138 230.26146L22.018763 230.26146L22.018763 229.13646L30.550013 229.13646ZM29.925013 222.94896Q30.675013 223.57396 30.675013 224.80833Q30.675013 225.82396 30.081263 226.35521Q29.487513 226.88646 28.331263 226.88646L24.206263 226.88646L24.206263 225.80833L28.300013 225.80833Q29.753138 225.80833 29.753138 224.63646Q29.753138 223.38646 28.815638 222.98021L24.206263 222.98021L24.206263 221.88646L30.550013 221.88646L30.550013 222.91771L29.925013 222.94896ZM24.206263 218.83958L24.909388 218.80833Q24.096888 218.12083 24.096888 216.93333Q24.096888 215.60521 25.112513 215.12083Q24.659388 214.80833 24.378138 214.30833Q24.096888 213.79271 24.096888 213.10521Q24.096888 211.01146 26.300013 210.98021L30.550013 210.98021L30.550013 212.05833L26.362513 212.05833Q25.690638 212.05833 25.362513 212.37083Q25.018763 212.68333 25.018763 213.41771Q25.018763 214.02708 25.378138 214.43333Q25.737513 214.82396 26.346888 214.88646L30.550013 214.88646L30.550013 215.96458L26.393763 215.96458Q25.018763 215.96458 25.018763 217.32396Q25.018763 218.38646 25.925013 218.77708L30.550013 218.77708L30.550013 219.87083L24.206263 219.87083L24.206263 218.83958ZM27.456263 203.49583Q28.909388 203.49583 29.800013 204.16771Q30.675013 204.82396 30.675013 205.94896Q30.675013 207.15208 29.815638 207.80833L30.550013 207.87083L30.550013 208.85521L21.550013 208.85521L21.550013 207.77708L24.909388 207.77708Q24.096888 207.12083 24.096888 205.96458Q24.096888 204.80833 24.971888 204.15208Q25.831263 203.49583 27.362513 203.49583L27.456263 203.49583ZM27.331263 204.57396Q26.221888 204.57396 25.628138 205.01146Q25.018763 205.43333 25.018763 206.23021Q25.018763 207.30833 26.003138 207.77708L28.753138 207.77708Q29.753138 207.27708 29.753138 206.23021Q29.753138 205.44896 29.143763 205.01146Q28.534388 204.57396 27.331263 204.57396ZM30.675013 199.23021Q30.675013 200.52708 29.831263 201.33958Q28.971888 202.13646 27.550013 202.13646L27.362513 202.13646Q26.409388 202.13646 25.675013 201.77708Q24.925013 201.41771 24.518763 200.77708Q24.096888 200.12083 24.096888 199.37083Q24.096888 198.13646 24.909388 197.44896Q25.721888 196.76146 27.237513 196.76146L27.690638 196.76146L27.690638 201.05833Q28.628138 201.02708 29.206263 200.51146Q29.784388 199.98021 29.784388 199.16771Q29.784388 198.60521 29.550013 198.21458Q29.315638 197.80833 28.925013 197.49583L29.440638 196.83958Q30.675013 197.63646 30.675013 199.23021ZM24.987513 199.37083Q24.987513 200.02708 25.471888 200.48021Q25.940638 200.91771 26.800013 201.01146L26.800013 197.83958L26.721888 197.83958Q25.893763 197.88646 25.440638 198.29271Q24.987513 198.68333 24.987513 199.37083ZM25.175013 192.79271Q25.143763 193.04271 25.143763 193.32396Q25.143763 194.40208 26.050013 194.77708L30.550013 194.77708L30.550013 195.85521L24.206263 195.85521L24.206263 194.80833L24.940638 194.79271Q24.096888 194.26146 24.096888 193.27708Q24.096888 192.96458 24.175013 192.79271L25.175013 192.79271ZM27.315638 189.15208Q26.393763 189.15208 25.643763 188.79271Q24.893763 188.41771 24.503138 187.76146Q24.096888 187.10521 24.096888 186.27708Q24.096888 184.98021 24.987513 184.18333Q25.878138 183.37083 27.378138 183.37083L27.456263 183.37083Q28.378138 183.37083 29.112513 183.73021Q29.846888 184.08958 30.268763 184.74583Q30.675013 185.40208 30.675013 186.26146Q30.675013 187.54271 29.784388 188.35521Q28.878138 189.15208 27.393763 189.15208L27.315638 189.15208ZM27.456263 188.05833Q28.503138 188.05833 29.143763 187.57396Q29.784388 187.07396 29.784388 186.26146Q29.784388 185.43333 29.143763 184.94896Q28.487513 184.46458 27.315638 184.46458Q26.284388 184.46458 25.643763 184.96458Q24.987513 185.44896 24.987513 186.27708Q24.987513 187.07396 25.628138 187.57396Q26.253138 188.05833 27.456263 188.05833ZM30.550013 181.32396L25.050013 181.32396L25.050013 182.32396L24.206263 182.32396L24.206263 181.32396L23.565638 181.32396Q22.534388 181.32396 21.987513 180.79271Q21.425013 180.24583 21.425013 179.24583Q21.425013 178.87083 21.518763 178.49583L22.409388 178.55833Q22.346888 178.83958 22.346888 179.13646Q22.346888 179.66771 22.659388 179.96458Q22.971888 180.24583 23.534388 180.24583L24.206263 180.24583L24.206263 178.88646L25.050013 178.88646L25.050013 180.24583L30.550013 180.24583L30.550013 181.32396ZM27.456263 169.51146Q28.893763 169.51146 29.784388 170.16771Q30.675013 170.82396 30.675013 171.96458Q30.675013 173.12083 29.940638 173.77708L32.98751 173.77708L32.98751 174.85521L24.206263 174.85521L24.206263 173.87083L24.909388 173.82396Q24.096888 173.15208 24.096888 171.98021Q24.096888 170.83958 24.956263 170.18333Q25.815638 169.51146 27.346888 169.51146L27.456263 169.51146ZM27.331263 170.58958Q26.253138 170.58958 25.643763 171.05833Q25.018763 171.51146 25.018763 172.30833Q25.018763 173.29271 25.878138 173.77708L28.909388 173.77708Q29.784388 173.29271 29.784388 172.29271Q29.784388 171.51146 29.175013 171.05833Q28.550013 170.58958 27.331263 170.58958ZM24.971888 166.77708Q24.096888 166.05833 24.096888 164.90208Q24.096888 162.88646 26.362513 162.87083L30.550013 162.87083L30.550013 163.96458L26.346888 163.96458Q25.675013 163.96458 25.346888 164.27708Q25.018763 164.57396 25.018763 165.23021Q25.018763 165.76146 25.300013 166.16771Q25.581263 166.55833 26.034388 166.77708L30.550013 166.77708L30.550013 167.85521L21.550013 167.85521L21.550013 166.77708L24.971888 166.77708ZM27.315638 161.15208Q26.393763 161.15208 25.643763 160.79271Q24.893763 160.41771 24.503138 159.76146Q24.096888 159.10521 24.096888 158.27708Q24.096888 156.98021 24.987513 156.18333Q25.878138 155.37083 27.378138 155.37083L27.456263 155.37083Q28.378138 155.37083 29.112513 155.73021Q29.846888 156.08958 30.268763 156.74583Q30.675013 157.40208 30.675013 158.26146Q30.675013 159.54271 29.784388 160.35521Q28.878138 161.15208 27.393763 161.15208L27.315638 161.15208ZM27.456263 160.05833Q28.503138 160.05833 29.143763 159.57396Q29.784388 159.07396 29.784388 158.26146Q29.784388 157.43333 29.143763 156.94896Q28.487513 156.46458 27.315638 156.46458Q26.284388 156.46458 25.643763 156.96458Q24.987513 157.44896 24.987513 158.27708Q24.987513 159.07396 25.628138 159.57396Q26.253138 160.05833 27.456263 160.05833ZM22.675013 152.38646L24.206263 152.38646L24.206263 151.21458L25.050013 151.21458L25.050013 152.38646L28.971888 152.38646Q29.362513 152.38646 29.550013 152.23021Q29.737513 152.07396 29.737513 151.69896Q29.737513 151.51146 29.675013 151.18333L30.550013 151.18333Q30.675013 151.60521 30.675013 152.01146Q30.675013 152.73021 30.237513 153.10521Q29.784388 153.48021 28.971888 153.48021L25.050013 153.48021L25.050013 154.63646L24.206263 154.63646L24.206263 153.48021L22.675013 153.48021L22.675013 152.38646ZM27.315638 150.15208Q26.393763 150.15208 25.643763 149.79271Q24.893763 149.41771 24.503138 148.76146Q24.096888 148.10521 24.096888 147.27708Q24.096888 145.98021 24.987513 145.18333Q25.878138 144.37083 27.378138 144.37083L27.456263 144.37083Q28.378138 144.37083 29.112513 144.73021Q29.846888 145.08958 30.268763 145.74583Q30.675013 146.40208 30.675013 147.26146Q30.675013 148.54271 29.784388 149.35521Q28.878138 150.15208 27.393763 150.15208L27.315638 150.15208ZM27.456263 149.05833Q28.503138 149.05833 29.143763 148.57396Q29.784388 148.07396 29.784388 147.26146Q29.784388 146.43333 29.143763 145.94896Q28.487513 145.46458 27.315638 145.46458Q26.284388 145.46458 25.643763 145.96458Q24.987513 146.44896 24.987513 147.27708Q24.987513 148.07396 25.628138 148.57396Q26.253138 149.05833 27.456263 149.05833ZM28.862513 139.16771Q28.425013 139.16771 28.190638 139.51146Q27.940638 139.83958 27.768763 140.66771Q27.596888 141.48021 27.346888 141.96458Q27.096888 142.44896 26.768763 142.68333Q26.425013 142.90208 25.956263 142.90208Q25.175013 142.90208 24.643763 142.24583Q24.096888 141.58958 24.096888 140.55833Q24.096888 139.48021 24.659388 138.82396Q25.206263 138.15208 26.065638 138.15208L26.065638 139.23021Q25.628138 139.23021 25.315638 139.62083Q24.987513 139.99583 24.987513 140.55833Q24.987513 141.15208 25.253138 141.49583Q25.503138 141.82396 25.909388 141.82396Q26.300013 141.82396 26.503138 141.51146Q26.706263 141.19896 26.893763 140.38646Q27.065638 139.57396 27.315638 139.07396Q27.565638 138.57396 27.925013 138.33958Q28.284388 138.08958 28.784388 138.08958Q29.643763 138.08958 30.159388 138.77708Q30.675013 139.44896 30.675013 140.52708Q30.675013 141.29271 30.409388 141.88646Q30.128138 142.46458 29.643763 142.79271Q29.159388 143.12083 28.596888 143.12083L28.596888 142.04271Q29.143763 142.01146 29.471888 141.60521Q29.784388 141.19896 29.784388 140.52708Q29.784388 139.91771 29.534388 139.54271Q29.284388 139.16771 28.862513 139.16771Z" fill-rule="nonzero"/><path fill="#757575" d="M85.6125 299.3094Q85.6125 301.21564 84.95625 302.15314Q84.31563 303.075 82.925 303.075Q81.56563 303.075 80.90938 302.16876Q80.25313 301.2625 80.22188 299.45L80.22188 298.0125Q80.22188 296.1219 80.8625 295.21564Q81.51875 294.29376 82.90938 294.29376Q84.28438 294.29376 84.94063 295.1844Q85.59688 296.0594 85.6125 297.90314L85.6125 299.3094ZM84.51875 297.825Q84.51875 296.45 84.12813 295.825Q83.75313 295.1844 82.90938 295.1844Q82.08125 295.1844 81.69063 295.825Q81.31563 296.45 81.31563 297.7469L81.31563 299.48126Q81.31563 300.85626 81.70625 301.52814Q82.1125 302.1844 82.925 302.1844Q83.72188 302.1844 84.1125 301.5594Q84.50313 300.9344 84.51875 299.60626L84.51875 297.825Z" fill-rule="nonzero"/><path fill="#757575" d="M59.753124 239.66042L60.190624 235.41042L64.56563 235.41042L64.56563 236.41042L61.1125 236.41042L60.846874 238.73854Q61.4875 238.36354 62.284374 238.36354Q63.440624 238.36354 64.12813 239.14479Q64.81563 239.91042 64.81563 241.22292Q64.81563 242.53542 64.09688 243.30104Q63.39375 244.06667 62.1125 244.06667Q60.9875 244.06667 60.26875 243.44167Q59.55 242.80104 59.45625 241.69167L60.471874 241.69167Q60.58125 242.42604 61.003124 242.80104Q61.425 243.17604 62.1125 243.17604Q62.8625 243.17604 63.3 242.66042Q63.7375 242.14479 63.7375 241.23854Q63.7375 240.37917 63.26875 239.86354Q62.8 239.34792 62.01875 239.34792Q61.315624 239.34792 60.909374 239.64479L60.628124 239.87917L59.753124 239.66042ZM71.6125 240.30104Q71.6125 242.20729 70.95625 243.14479Q70.31563 244.06667 68.925 244.06667Q67.56563 244.06667 66.90938 243.16042Q66.25313 242.25417 66.22188 240.44167L66.22188 239.00417Q66.22188 237.11354 66.8625 236.20729Q67.51875 235.28542 68.90938 235.28542Q70.28438 235.28542 70.94063 236.17604Q71.59688 237.05104 71.6125 238.89479L71.6125 240.30104ZM70.51875 238.81667Q70.51875 237.44167 70.12813 236.81667Q69.75313 236.17604 68.90938 236.17604Q68.08125 236.17604 67.69063 236.81667Q67.31563 237.44167 67.31563 238.73854L67.31563 240.47292Q67.31563 241.84792 67.70625 242.51979Q68.1125 243.17604 68.925 243.17604Q69.72188 243.17604 70.1125 242.55104Q70.50313 241.92604 70.51875 240.59792L70.51875 238.81667ZM78.6125 240.30104Q78.6125 242.20729 77.95625 243.14479Q77.31563 244.06667 75.925 244.06667Q74.56563 244.06667 73.90938 243.16042Q73.25313 242.25417 73.22188 240.44167L73.22188 239.00417Q73.22188 237.11354 73.8625 236.20729Q74.51875 235.28542 75.90938 235.28542Q77.28438 235.28542 77.94063 236.17604Q78.59688 237.05104 78.6125 238.89479L78.6125 240.30104ZM77.51875 238.81667Q77.51875 237.44167 77.12813 236.81667Q76.75313 236.17604 75.90938 236.17604Q75.08125 236.17604 74.69063 236.81667Q74.31563 237.44167 74.31563 238.73854L74.31563 240.47292Q74.31563 241.84792 74.70625 242.51979Q75.1125 243.17604 75.925 243.17604Q76.72188 243.17604 77.1125 242.55104Q77.50313 241.92604 77.51875 240.59792L77.51875 238.81667ZM85.6125 240.30104Q85.6125 242.20729 84.95625 243.14479Q84.31563 244.06667 82.925 244.06667Q81.56563 244.06667 80.90938 243.16042Q80.25313 242.25417 80.22188 240.44167L80.22188 239.00417Q80.22188 237.11354 80.8625 236.20729Q81.51875 235.28542 82.90938 235.28542Q84.28438 235.28542 84.94063 236.17604Q85.59688 237.05104 85.6125 238.89479L85.6125 240.30104ZM84.51875 238.81667Q84.51875 237.44167 84.12813 236.81667Q83.75313 236.17604 82.90938 236.17604Q82.08125 236.17604 81.69063 236.81667Q81.31563 237.44167 81.31563 238.73854L81.31563 240.47292Q81.31563 241.84792 81.70625 242.51979Q82.1125 243.17604 82.925 243.17604Q83.72188 243.17604 84.1125 242.55104Q84.50313 241.92604 84.51875 240.59792L84.51875 238.81667Z" fill-rule="nonzero"/><path fill="#757575" d="M55.815624 184.93333L54.7375 184.93333L54.7375 177.71458L52.55 178.51146L52.55 177.52708L55.659374 176.35521L55.815624 176.35521L55.815624 184.93333ZM64.6125 181.29271Q64.6125 183.19896 63.95625 184.13646Q63.315624 185.05833 61.925 185.05833Q60.565624 185.05833 59.909374 184.15208Q59.253124 183.24583 59.221874 181.43333L59.221874 179.99583Q59.221874 178.10521 59.8625 177.19896Q60.51875 176.27708 61.909374 176.27708Q63.284374 176.27708 63.940624 177.16771Q64.59688 178.04271 64.6125 179.88646L64.6125 181.29271ZM63.51875 179.80833Q63.51875 178.43333 63.128124 177.80833Q62.753124 177.16771 61.909374 177.16771Q61.08125 177.16771 60.690624 177.80833Q60.315624 178.43333 60.315624 179.73021L60.315624 181.46458Q60.315624 182.83958 60.70625 183.51146Q61.1125 184.16771 61.925 184.16771Q62.721874 184.16771 63.1125 183.54271Q63.503124 182.91771 63.51875 181.58958L63.51875 179.80833ZM71.6125 181.29271Q71.6125 183.19896 70.95625 184.13646Q70.31563 185.05833 68.925 185.05833Q67.56563 185.05833 66.90938 184.15208Q66.25313 183.24583 66.22188 181.43333L66.22188 179.99583Q66.22188 178.10521 66.8625 177.19896Q67.51875 176.27708 68.90938 176.27708Q70.28438 176.27708 70.94063 177.16771Q71.59688 178.04271 71.6125 179.88646L71.6125 181.29271ZM70.51875 179.80833Q70.51875 178.43333 70.12813 177.80833Q69.75313 177.16771 68.90938 177.16771Q68.08125 177.16771 67.69063 177.80833Q67.31563 178.43333 67.31563 179.73021L67.31563 181.46458Q67.31563 182.83958 67.70625 183.51146Q68.1125 184.16771 68.925 184.16771Q69.72188 184.16771 70.1125 183.54271Q70.50313 182.91771 70.51875 181.58958L70.51875 179.80833ZM78.6125 181.29271Q78.6125 183.19896 77.95625 184.13646Q77.31563 185.05833 75.925 185.05833Q74.56563 185.05833 73.90938 184.15208Q73.25313 183.24583 73.22188 181.43333L73.22188 179.99583Q73.22188 178.10521 73.8625 177.19896Q74.51875 176.27708 75.90938 176.27708Q77.28438 176.27708 77.94063 177.16771Q78.59688 178.04271 78.6125 179.88646L78.6125 181.29271ZM77.51875 179.80833Q77.51875 178.43333 77.12813 177.80833Q76.75313 177.16771 75.90938 177.16771Q75.08125 177.16771 74.69063 177.80833Q74.31563 178.43333 74.31563 179.73021L74.31563 181.46458Q74.31563 182.83958 74.70625 183.51146Q75.1125 184.16771 75.925 184.16771Q76.72188 184.16771 77.1125 183.54271Q77.50313 182.91771 77.51875 181.58958L77.51875 179.80833ZM85.6125 181.29271Q85.6125 183.19896 84.95625 184.13646Q84.31563 185.05833 82.925 185.05833Q81.56563 185.05833 80.90938 184.15208Q80.25313 183.24583 80.22188 181.43333L80.22188 179.99583Q80.22188 178.10521 80.8625 177.19896Q81.51875 176.27708 82.90938 176.27708Q84.28438 176.27708 84.94063 177.16771Q85.59688 178.04271 85.6125 179.88646L85.6125 181.29271ZM84.51875 179.80833Q84.51875 178.43333 84.12813 177.80833Q83.75313 177.16771 82.90938 177.16771Q82.08125 177.16771 81.69063 177.80833Q81.31563 178.43333 81.31563 179.73021L81.31563 181.46458Q81.31563 182.83958 81.70625 183.51146Q82.1125 184.16771 82.925 184.16771Q83.72188 184.16771 84.1125 183.54271Q84.50313 182.91771 84.51875 181.58958L84.51875 179.80833Z" fill-rule="nonzero"/><path fill="#757575" d="M55.815624 125.925L54.7375 125.925L54.7375 118.70625L52.55 119.50313L52.55 118.51875L55.659374 117.34688L55.815624 117.34688L55.815624 125.925ZM59.753124 121.64375L60.190624 117.39375L64.56563 117.39375L64.56563 118.39375L61.1125 118.39375L60.846874 120.72188Q61.4875 120.34688 62.284374 120.34688Q63.440624 120.34688 64.12813 121.12813Q64.81563 121.89375 64.81563 123.20625Q64.81563 124.51875 64.09688 125.28438Q63.39375 126.05 62.1125 126.05Q60.9875 126.05 60.26875 125.425Q59.55 124.78438 59.45625 123.675L60.471874 123.675Q60.58125 124.40938 61.003124 124.78438Q61.425 125.15938 62.1125 125.15938Q62.8625 125.15938 63.3 124.64375Q63.7375 124.12813 63.7375 123.22188Q63.7375 122.3625 63.26875 121.84688Q62.8 121.33125 62.01875 121.33125Q61.315624 121.33125 60.909374 121.62813L60.628124 121.8625L59.753124 121.64375ZM71.6125 122.28438Q71.6125 124.19063 70.95625 125.12813Q70.31563 126.05 68.925 126.05Q67.56563 126.05 66.90938 125.14375Q66.25313 124.2375 66.22188 122.425L66.22188 120.9875Q66.22188 119.09688 66.8625 118.19063Q67.51875 117.26875 68.90938 117.26875Q70.28438 117.26875 70.94063 118.15938Q71.59688 119.03438 71.6125 120.87813L71.6125 122.28438ZM70.51875 120.8Q70.51875 119.425 70.12813 118.8Q69.75313 118.15938 68.90938 118.15938Q68.08125 118.15938 67.69063 118.8Q67.31563 119.425 67.31563 120.72188L67.31563 122.45625Q67.31563 123.83125 67.70625 124.50313Q68.1125 125.15938 68.925 125.15938Q69.72188 125.15938 70.1125 124.53438Q70.50313 123.90938 70.51875 122.58125L70.51875 120.8ZM78.6125 122.28438Q78.6125 124.19063 77.95625 125.12813Q77.31563 126.05 75.925 126.05Q74.56563 126.05 73.90938 125.14375Q73.25313 124.2375 73.22188 122.425L73.22188 120.9875Q73.22188 119.09688 73.8625 118.19063Q74.51875 117.26875 75.90938 117.26875Q77.28438 117.26875 77.94063 118.15938Q78.59688 119.03438 78.6125 120.87813L78.6125 122.28438ZM77.51875 120.8Q77.51875 119.425 77.12813 118.8Q76.75313 118.15938 75.90938 118.15938Q75.08125 118.15938 74.69063 118.8Q74.31563 119.425 74.31563 120.72188L74.31563 122.45625Q74.31563 123.83125 74.70625 124.50313Q75.1125 125.15938 75.925 125.15938Q76.72188 125.15938 77.1125 124.53438Q77.50313 123.90938 77.51875 122.58125L77.51875 120.8ZM85.6125 122.28438Q85.6125 124.19063 84.95625 125.12813Q84.31563 126.05 82.925 126.05Q81.56563 126.05 80.90938 125.14375Q80.25313 124.2375 80.22188 122.425L80.22188 120.9875Q80.22188 119.09688 80.8625 118.19063Q81.51875 117.26875 82.90938 117.26875Q84.28438 117.26875 84.94063 118.15938Q85.59688 119.03438 85.6125 120.87813L85.6125 122.28438ZM84.51875 120.8Q84.51875 119.425 84.12813 118.8Q83.75313 118.15938 82.90938 118.15938Q82.08125 118.15938 81.69063 118.8Q81.31563 119.425 81.31563 120.72188L81.31563 122.45625Q81.31563 123.83125 81.70625 124.50313Q82.1125 125.15938 82.925 125.15938Q83.72188 125.15938 84.1125 124.53438Q84.50313 123.90938 84.51875 122.58125L84.51875 120.8Z" fill-rule="nonzero"/><path fill="#757575" d="M57.846874 66.916664L52.253124 66.916664L52.253124 66.135414L55.20625 62.854164Q55.8625 62.104164 56.1125 61.65104Q56.3625 61.18229 56.3625 60.68229Q56.3625 60.010414 55.95625 59.58854Q55.565624 59.15104 54.878124 59.15104Q54.08125 59.15104 53.628124 59.61979Q53.175 60.072914 53.175 60.90104L52.096874 60.90104Q52.096874 59.71354 52.846874 58.99479Q53.6125 58.260414 54.878124 58.260414Q56.08125 58.260414 56.76875 58.885414Q57.45625 59.510414 57.45625 60.55729Q57.45625 61.80729 55.846874 63.55729L53.565624 66.02604L57.846874 66.02604L57.846874 66.916664ZM64.6125 63.27604Q64.6125 65.18229 63.95625 66.11979Q63.315624 67.041664 61.925 67.041664Q60.565624 67.041664 59.909374 66.135414Q59.253124 65.229164 59.221874 63.416664L59.221874 61.979164Q59.221874 60.08854 59.8625 59.18229Q60.51875 58.260414 61.909374 58.260414Q63.284374 58.260414 63.940624 59.15104Q64.59688 60.02604 64.6125 61.86979L64.6125 63.27604ZM63.51875 61.791664Q63.51875 60.416664 63.128124 59.791664Q62.753124 59.15104 61.909374 59.15104Q61.08125 59.15104 60.690624 59.791664Q60.315624 60.416664 60.315624 61.71354L60.315624 63.447914Q60.315624 64.822914 60.70625 65.49479Q61.1125 66.15104 61.925 66.15104Q62.721874 66.15104 63.1125 65.52604Q63.503124 64.90104 63.51875 63.572914L63.51875 61.791664ZM71.6125 63.27604Q71.6125 65.18229 70.95625 66.11979Q70.31563 67.041664 68.925 67.041664Q67.56563 67.041664 66.90938 66.135414Q66.25313 65.229164 66.22188 63.416664L66.22188 61.979164Q66.22188 60.08854 66.8625 59.18229Q67.51875 58.260414 68.90938 58.260414Q70.28438 58.260414 70.94063 59.15104Q71.59688 60.02604 71.6125 61.86979L71.6125 63.27604ZM70.51875 61.791664Q70.51875 60.416664 70.12813 59.791664Q69.75313 59.15104 68.90938 59.15104Q68.08125 59.15104 67.69063 59.791664Q67.31563 60.416664 67.31563 61.71354L67.31563 63.447914Q67.31563 64.822914 67.70625 65.49479Q68.1125 66.15104 68.925 66.15104Q69.72188 66.15104 70.1125 65.52604Q70.50313 64.90104 70.51875 63.572914L70.51875 61.791664ZM78.6125 63.27604Q78.6125 65.18229 77.95625 66.11979Q77.31563 67.041664 75.925 67.041664Q74.56563 67.041664 73.90938 66.135414Q73.25313 65.229164 73.22188 63.416664L73.22188 61.979164Q73.22188 60.08854 73.8625 59.18229Q74.51875 58.260414 75.90938 58.260414Q77.28438 58.260414 77.94063 59.15104Q78.59688 60.02604 78.6125 61.86979L78.6125 63.27604ZM77.51875 61.791664Q77.51875 60.416664 77.12813 59.791664Q76.75313 59.15104 75.90938 59.15104Q75.08125 59.15104 74.69063 59.791664Q74.31563 60.416664 74.31563 61.71354L74.31563 63.447914Q74.31563 64.822914 74.70625 65.49479Q75.1125 66.15104 75.925 66.15104Q76.72188 66.15104 77.1125 65.52604Q77.50313 64.90104 77.51875 63.572914L77.51875 61.791664ZM85.6125 63.27604Q85.6125 65.18229 84.95625 66.11979Q84.31563 67.041664 82.925 67.041664Q81.56563 67.041664 80.90938 66.135414Q80.25313 65.229164 80.22188 63.416664L80.22188 61.979164Q80.22188 60.08854 80.8625 59.18229Q81.51875 58.260414 82.90938 58.260414Q84.28438 58.260414 84.94063 59.15104Q85.59688 60.02604 85.6125 61.86979L85.6125 63.27604ZM84.51875 61.791664Q84.51875 60.416664 84.12813 59.791664Q83.75313 59.15104 82.90938 59.15104Q82.08125 59.15104 81.69063 59.791664Q81.31563 60.416664 81.31563 61.71354L81.31563 63.447914Q81.31563 64.822914 81.70625 65.49479Q82.1125 66.15104 82.925 66.15104Q83.72188 66.15104 84.1125 65.52604Q84.50313 64.90104 84.51875 63.572914L84.51875 61.791664Z" fill-rule="nonzero"/><path fill="#757575" d="M116.90641 312.7Q116.578285 313.10626 116.09391 313.35626Q115.62516 313.59064 115.06266 313.59064Q114.328285 313.59064 113.78141 313.23126Q113.234535 312.8719 112.93766 312.21564Q112.640785 311.54376 112.640785 310.7469Q112.640785 309.90314 112.953285 309.21564Q113.28141 308.52814 113.87516 308.16876Q114.484535 307.79376 115.28141 307.79376Q116.547035 307.79376 117.265785 308.7469Q118.00016 309.7 118.00016 311.325L118.00016 311.6375Q118.00016 314.1375 117.015785 315.27814Q116.03141 316.41876 114.047035 316.45L113.828285 316.45L113.828285 315.54376L114.06266 315.54376Q115.40641 315.5125 116.12516 314.84064Q116.84391 314.16876 116.90641 312.7ZM115.234535 312.7Q115.78141 312.7 116.234535 312.3719Q116.703285 312.02814 116.922035 311.54376L116.922035 311.10626Q116.922035 310.04376 116.453285 309.3719Q115.984535 308.7 115.28141 308.7Q114.56266 308.7 114.12516 309.2469Q113.703285 309.79376 113.703285 310.7Q113.703285 311.575 114.109535 312.1375Q114.53141 312.7 115.234535 312.7Z" fill-rule="nonzero"/><path fill="#757575" d="M146.88235 316.45L145.80423 316.45L145.80423 309.23126L143.61673 310.02814L143.61673 309.04376L146.7261 307.8719L146.88235 307.8719L146.88235 316.45ZM155.9136 316.45L150.31985 316.45L150.31985 315.66876L153.27298 312.3875Q153.92923 311.6375 154.17923 311.1844Q154.42923 310.71564 154.42923 310.21564Q154.42923 309.54376 154.02298 309.1219Q153.63235 308.6844 152.94485 308.6844Q152.14798 308.6844 151.69485 309.15314Q151.24173 309.60626 151.24173 310.4344L150.1636 310.4344Q150.1636 309.2469 150.9136 308.52814Q151.67923 307.79376 152.94485 307.79376Q154.14798 307.79376 154.83548 308.41876Q155.52298 309.04376 155.52298 310.09064Q155.52298 311.34064 153.9136 313.09064L151.63235 315.5594L155.9136 315.5594L155.9136 316.45Z" fill-rule="nonzero"/><path fill="#757575" d="M180.95204 316.45L179.87392 316.45L179.87392 309.23126L177.68642 310.02814L177.68642 309.04376L180.79579 307.8719L180.95204 307.8719L180.95204 316.45ZM184.88954 312.16876L185.32704 307.91876L189.70204 307.91876L189.70204 308.91876L186.24892 308.91876L185.98329 311.2469Q186.62392 310.8719 187.42079 310.8719Q188.57704 310.8719 189.26454 311.65314Q189.95204 312.41876 189.95204 313.73126Q189.95204 315.04376 189.23329 315.8094Q188.53017 316.575 187.24892 316.575Q186.12392 316.575 185.40517 315.95Q184.68642 315.3094 184.59267 314.2L185.60829 314.2Q185.71767 314.9344 186.13954 315.3094Q186.56142 315.6844 187.24892 315.6844Q187.99892 315.6844 188.43642 315.16876Q188.87392 314.65314 188.87392 313.7469Q188.87392 312.8875 188.40517 312.3719Q187.93642 311.85626 187.15517 311.85626Q186.45204 311.85626 186.04579 312.15314L185.76454 312.3875L184.88954 312.16876Z" fill-rule="nonzero"/><path fill="#757575" d="M215.02173 316.45L213.9436 316.45L213.9436 309.23126L211.7561 310.02814L211.7561 309.04376L214.86548 307.8719L215.02173 307.8719L215.02173 316.45ZM223.64673 310.1375Q223.64673 310.77814 223.30298 311.27814Q222.95923 311.77814 222.39673 312.0594Q223.05298 312.34064 223.4436 312.90314Q223.83423 313.45 223.83423 314.15314Q223.83423 315.2469 223.08423 315.91876Q222.34985 316.575 221.1311 316.575Q219.89673 316.575 219.14673 315.91876Q218.41235 315.2469 218.41235 314.15314Q218.41235 313.45 218.78735 312.90314Q219.16235 312.34064 219.83423 312.0594Q219.27173 311.77814 218.9436 311.27814Q218.61548 310.77814 218.61548 310.1375Q218.61548 309.0594 219.30298 308.4344Q219.99048 307.79376 221.1311 307.79376Q222.2561 307.79376 222.9436 308.4344Q223.64673 309.0594 223.64673 310.1375ZM222.7561 314.1219Q222.7561 313.40314 222.30298 312.96564Q221.84985 312.5125 221.11548 312.5125Q220.3811 312.5125 219.92798 312.96564Q219.49048 313.40314 219.49048 314.1375Q219.49048 314.85626 219.92798 315.27814Q220.36548 315.6844 221.1311 315.6844Q221.8811 315.6844 222.3186 315.2625Q222.7561 314.84064 222.7561 314.1219ZM221.1311 308.6844Q220.49048 308.6844 220.08423 309.09064Q219.6936 309.48126 219.6936 310.16876Q219.6936 310.8094 220.08423 311.21564Q220.47485 311.6219 221.11548 311.6219Q221.77173 311.6219 222.16235 311.21564Q222.55298 310.8094 222.55298 310.16876Q222.55298 309.5125 222.14673 309.10626Q221.74048 308.6844 221.1311 308.6844Z" fill-rule="nonzero"/><path fill="#757575" d="M251.12267 316.45L245.52892 316.45L245.52892 315.66876L248.48204 312.3875Q249.13829 311.6375 249.38829 311.1844Q249.63829 310.71564 249.63829 310.21564Q249.63829 309.54376 249.23204 309.1219Q248.84142 308.6844 248.15392 308.6844Q247.35704 308.6844 246.90392 309.15314Q246.45079 309.60626 246.45079 310.4344L245.37267 310.4344Q245.37267 309.2469 246.12267 308.52814Q246.88829 307.79376 248.15392 307.79376Q249.35704 307.79376 250.04454 308.41876Q250.73204 309.04376 250.73204 310.09064Q250.73204 311.34064 249.12267 313.09064L246.84142 315.5594L251.12267 315.5594L251.12267 316.45ZM256.09143 316.45L255.01329 316.45L255.01329 309.23126L252.82579 310.02814L252.82579 309.04376L255.93517 307.8719L256.09143 307.8719L256.09143 316.45Z" fill-rule="nonzero"/><path fill="#757575" d="M285.19235 316.45L279.5986 316.45L279.5986 315.66876L282.55173 312.3875Q283.20798 311.6375 283.45798 311.1844Q283.70798 310.71564 283.70798 310.21564Q283.70798 309.54376 283.30173 309.1219Q282.9111 308.6844 282.2236 308.6844Q281.42673 308.6844 280.9736 309.15314Q280.52048 309.60626 280.52048 310.4344L279.44235 310.4344Q279.44235 309.2469 280.19235 308.52814Q280.95798 307.79376 282.2236 307.79376Q283.42673 307.79376 284.11423 308.41876Q284.80173 309.04376 284.80173 310.09064Q284.80173 311.34064 283.19235 313.09064L280.9111 315.5594L285.19235 315.5594L285.19235 316.45ZM291.17673 313.59064L292.36423 313.59064L292.36423 314.46564L291.17673 314.46564L291.17673 316.45L290.0986 316.45L290.0986 314.46564L286.20798 314.46564L286.20798 313.825L290.02048 307.91876L291.17673 307.91876L291.17673 313.59064ZM287.44235 313.59064L290.0986 313.59064L290.0986 309.40314L289.95798 309.6375L287.44235 313.59064Z" fill-rule="nonzero"/><path fill="#757575" d="M319.26202 316.45L313.66827 316.45L313.66827 315.66876L316.6214 312.3875Q317.27765 311.6375 317.52765 311.1844Q317.77765 310.71564 317.77765 310.21564Q317.77765 309.54376 317.3714 309.1219Q316.98077 308.6844 316.29327 308.6844Q315.4964 308.6844 315.04327 309.15314Q314.59015 309.60626 314.59015 310.4344L313.51202 310.4344Q313.51202 309.2469 314.26202 308.52814Q315.02765 307.79376 316.29327 307.79376Q317.4964 307.79376 318.1839 308.41876Q318.8714 309.04376 318.8714 310.09064Q318.8714 311.34064 317.26202 313.09064L314.98077 315.5594L319.26202 315.5594L319.26202 316.45ZM326.1839 308.52814L322.65265 316.45L321.51202 316.45L325.02765 308.8094L320.41827 308.8094L320.41827 307.91876L326.1839 307.91876L326.1839 308.52814Z" fill-rule="nonzero"/><path fill="#757575" d="M349.3161 311.65314L350.1286 311.65314Q350.90985 311.6375 351.34735 311.2469Q351.78485 310.85626 351.78485 310.1844Q351.78485 308.6844 350.28485 308.6844Q349.58173 308.6844 349.15985 309.09064Q348.7536 309.4969 348.7536 310.15314L347.65985 310.15314Q347.65985 309.1375 348.39423 308.46564Q349.14423 307.79376 350.28485 307.79376Q351.48798 307.79376 352.17548 308.4344Q352.86298 309.075 352.86298 310.21564Q352.86298 310.77814 352.5036 311.29376Q352.14423 311.8094 351.51923 312.075Q352.22235 312.29376 352.59735 312.8094Q352.98798 313.325 352.98798 314.075Q352.98798 315.21564 352.23798 315.90314Q351.48798 316.575 350.28485 316.575Q349.09735 316.575 348.33173 315.91876Q347.58173 315.2625 347.58173 314.2L348.67548 314.2Q348.67548 314.8719 349.11298 315.27814Q349.55048 315.6844 350.30048 315.6844Q351.08173 315.6844 351.48798 315.27814Q351.90985 314.85626 351.90985 314.09064Q351.90985 313.35626 351.45673 312.96564Q351.0036 312.5594 350.1286 312.54376L349.3161 312.54376L349.3161 311.65314ZM360.09735 312.8094Q360.09735 314.71564 359.4411 315.65314Q358.80048 316.575 357.40985 316.575Q356.05048 316.575 355.39423 315.66876Q354.73798 314.7625 354.70673 312.95L354.70673 311.5125Q354.70673 309.6219 355.34735 308.71564Q356.0036 307.79376 357.39423 307.79376Q358.76923 307.79376 359.42548 308.6844Q360.08173 309.5594 360.09735 311.40314L360.09735 312.8094ZM359.0036 311.325Q359.0036 309.95 358.61298 309.325Q358.23798 308.6844 357.39423 308.6844Q356.5661 308.6844 356.17548 309.325Q355.80048 309.95 355.80048 311.2469L355.80048 312.98126Q355.80048 314.35626 356.1911 315.02814Q356.59735 315.6844 357.40985 315.6844Q358.20673 315.6844 358.59735 315.0594Q358.98798 314.4344 359.0036 313.10626L359.0036 311.325Z" fill-rule="nonzero"/><path fill="#757575" d="M383.38577 311.65314L384.19827 311.65314Q384.97952 311.6375 385.41702 311.2469Q385.85452 310.85626 385.85452 310.1844Q385.85452 308.6844 384.35452 308.6844Q383.6514 308.6844 383.22952 309.09064Q382.82327 309.4969 382.82327 310.15314L381.72952 310.15314Q381.72952 309.1375 382.4639 308.46564Q383.2139 307.79376 384.35452 307.79376Q385.55765 307.79376 386.24515 308.4344Q386.93265 309.075 386.93265 310.21564Q386.93265 310.77814 386.57327 311.29376Q386.2139 311.8094 385.5889 312.075Q386.29202 312.29376 386.66702 312.8094Q387.05765 313.325 387.05765 314.075Q387.05765 315.21564 386.30765 315.90314Q385.55765 316.575 384.35452 316.575Q383.16702 316.575 382.4014 315.91876Q381.6514 315.2625 381.6514 314.2L382.74515 314.2Q382.74515 314.8719 383.18265 315.27814Q383.62015 315.6844 384.37015 315.6844Q385.1514 315.6844 385.55765 315.27814Q385.97952 314.85626 385.97952 314.09064Q385.97952 313.35626 385.5264 312.96564Q385.07327 312.5594 384.19827 312.54376L383.38577 312.54376L383.38577 311.65314ZM390.38577 311.65314L391.19827 311.65314Q391.97952 311.6375 392.41702 311.2469Q392.85452 310.85626 392.85452 310.1844Q392.85452 308.6844 391.35452 308.6844Q390.6514 308.6844 390.22952 309.09064Q389.82327 309.4969 389.82327 310.15314L388.72952 310.15314Q388.72952 309.1375 389.4639 308.46564Q390.2139 307.79376 391.35452 307.79376Q392.55765 307.79376 393.24515 308.4344Q393.93265 309.075 393.93265 310.21564Q393.93265 310.77814 393.57327 311.29376Q393.2139 311.8094 392.5889 312.075Q393.29202 312.29376 393.66702 312.8094Q394.05765 313.325 394.05765 314.075Q394.05765 315.21564 393.30765 315.90314Q392.55765 316.575 391.35452 316.575Q390.16702 316.575 389.4014 315.91876Q388.6514 315.2625 388.6514 314.2L389.74515 314.2Q389.74515 314.8719 390.18265 315.27814Q390.62015 315.6844 391.37015 315.6844Q392.1514 315.6844 392.55765 315.27814Q392.97952 314.85626 392.97952 314.09064Q392.97952 313.35626 392.5264 312.96564Q392.07327 312.5594 391.19827 312.54376L390.38577 312.54376L390.38577 311.65314Z" fill-rule="nonzero"/><path fill="#757575" d="M417.45547 311.65314L418.26797 311.65314Q419.04922 311.6375 419.48672 311.2469Q419.92422 310.85626 419.92422 310.1844Q419.92422 308.6844 418.42422 308.6844Q417.7211 308.6844 417.29922 309.09064Q416.89297 309.4969 416.89297 310.15314L415.79922 310.15314Q415.79922 309.1375 416.5336 308.46564Q417.2836 307.79376 418.42422 307.79376Q419.62735 307.79376 420.31485 308.4344Q421.00235 309.075 421.00235 310.21564Q421.00235 310.77814 420.64297 311.29376Q420.2836 311.8094 419.6586 312.075Q420.36172 312.29376 420.73672 312.8094Q421.12735 313.325 421.12735 314.075Q421.12735 315.21564 420.37735 315.90314Q419.62735 316.575 418.42422 316.575Q417.23672 316.575 416.4711 315.91876Q415.7211 315.2625 415.7211 314.2L416.81485 314.2Q416.81485 314.8719 417.25235 315.27814Q417.68985 315.6844 418.43985 315.6844Q419.2211 315.6844 419.62735 315.27814Q420.04922 314.85626 420.04922 314.09064Q420.04922 313.35626 419.5961 312.96564Q419.14297 312.5594 418.26797 312.54376L417.45547 312.54376L417.45547 311.65314ZM427.14297 307.91876L427.14297 308.825L426.93985 308.825Q425.67422 308.85626 424.92422 309.59064Q424.17422 310.3094 424.04922 311.6219Q424.73672 310.85626 425.89297 310.85626Q427.00235 310.85626 427.67422 311.6375Q428.3461 312.41876 428.3461 313.66876Q428.3461 314.98126 427.62735 315.77814Q426.9086 316.575 425.68985 316.575Q424.4711 316.575 423.70547 315.6375Q422.95547 314.6844 422.95547 313.2L422.95547 312.79376Q422.95547 310.4344 423.95547 309.1844Q424.95547 307.9344 426.93985 307.91876L427.14297 307.91876ZM425.7211 311.7625Q425.1586 311.7625 424.68985 312.09064Q424.2211 312.41876 424.0336 312.9344L424.0336 313.325Q424.0336 314.3875 424.50235 315.02814Q424.98672 315.66876 425.68985 315.66876Q426.42422 315.66876 426.8461 315.1375Q427.26797 314.59064 427.26797 313.71564Q427.26797 312.84064 426.8461 312.3094Q426.42422 311.7625 425.7211 311.7625Z" fill-rule="nonzero"/><path fill="#757575" d="M451.52515 311.65314L452.33765 311.65314Q453.1189 311.6375 453.5564 311.2469Q453.9939 310.85626 453.9939 310.1844Q453.9939 308.6844 452.4939 308.6844Q451.79077 308.6844 451.3689 309.09064Q450.96265 309.4969 450.96265 310.15314L449.8689 310.15314Q449.8689 309.1375 450.60327 308.46564Q451.35327 307.79376 452.4939 307.79376Q453.69702 307.79376 454.38452 308.4344Q455.07202 309.075 455.07202 310.21564Q455.07202 310.77814 454.71265 311.29376Q454.35327 311.8094 453.72827 312.075Q454.4314 312.29376 454.8064 312.8094Q455.19702 313.325 455.19702 314.075Q455.19702 315.21564 454.44702 315.90314Q453.69702 316.575 452.4939 316.575Q451.3064 316.575 450.54077 315.91876Q449.79077 315.2625 449.79077 314.2L450.88452 314.2Q450.88452 314.8719 451.32202 315.27814Q451.75952 315.6844 452.50952 315.6844Q453.29077 315.6844 453.69702 315.27814Q454.1189 314.85626 454.1189 314.09064Q454.1189 313.35626 453.66577 312.96564Q453.21265 312.5594 452.33765 312.54376L451.52515 312.54376L451.52515 311.65314ZM461.10327 312.7Q460.77515 313.10626 460.29077 313.35626Q459.82202 313.59064 459.25952 313.59064Q458.52515 313.59064 457.97827 313.23126Q457.4314 312.8719 457.13452 312.21564Q456.83765 311.54376 456.83765 310.7469Q456.83765 309.90314 457.15015 309.21564Q457.47827 308.52814 458.07202 308.16876Q458.6814 307.79376 459.47827 307.79376Q460.7439 307.79376 461.46265 308.7469Q462.19702 309.7 462.19702 311.325L462.19702 311.6375Q462.19702 314.1375 461.21265 315.27814Q460.22827 316.41876 458.2439 316.45L458.02515 316.45L458.02515 315.54376L458.25952 315.54376Q459.60327 315.5125 460.32202 314.84064Q461.04077 314.16876 461.10327 312.7ZM459.4314 312.7Q459.97827 312.7 460.4314 312.3719Q460.90015 312.02814 461.1189 311.54376L461.1189 311.10626Q461.1189 310.04376 460.65015 309.3719Q460.1814 308.7 459.47827 308.7Q458.75952 308.7 458.32202 309.2469Q457.90015 309.79376 457.90015 310.7Q457.90015 311.575 458.3064 312.1375Q458.72827 312.7 459.4314 312.7Z" fill-rule="nonzero"/><path fill="#757575" d="M488.59485 313.59064L489.78235 313.59064L489.78235 314.46564L488.59485 314.46564L488.59485 316.45L487.51672 316.45L487.51672 314.46564L483.6261 314.46564L483.6261 313.825L487.4386 307.91876L488.59485 307.91876L488.59485 313.59064ZM484.86047 313.59064L487.51672 313.59064L487.51672 309.40314L487.3761 309.6375L484.86047 313.59064ZM496.61047 316.45L491.01672 316.45L491.01672 315.66876L493.96985 312.3875Q494.6261 311.6375 494.8761 311.1844Q495.1261 310.71564 495.1261 310.21564Q495.1261 309.54376 494.71985 309.1219Q494.32922 308.6844 493.64172 308.6844Q492.84485 308.6844 492.39172 309.15314Q491.9386 309.60626 491.9386 310.4344L490.86047 310.4344Q490.86047 309.2469 491.61047 308.52814Q492.3761 307.79376 493.64172 307.79376Q494.84485 307.79376 495.53235 308.41876Q496.21985 309.04376 496.21985 310.09064Q496.21985 311.34064 494.61047 313.09064L492.32922 315.5594L496.61047 315.5594L496.61047 316.45Z" fill-rule="nonzero"/><path fill="#757575" d="M522.66455 313.59064L523.85205 313.59064L523.85205 314.46564L522.66455 314.46564L522.66455 316.45L521.5864 316.45L521.5864 314.46564L517.6958 314.46564L517.6958 313.825L521.5083 307.91876L522.66455 307.91876L522.66455 313.59064ZM518.9302 313.59064L521.5864 313.59064L521.5864 309.40314L521.4458 309.6375L518.9302 313.59064ZM525.5864 312.16876L526.0239 307.91876L530.3989 307.91876L530.3989 308.91876L526.9458 308.91876L526.6802 311.2469Q527.3208 310.8719 528.1177 310.8719Q529.2739 310.8719 529.9614 311.65314Q530.6489 312.41876 530.6489 313.73126Q530.6489 315.04376 529.9302 315.8094Q529.22705 316.575 527.9458 316.575Q526.8208 316.575 526.10205 315.95Q525.3833 315.3094 525.28955 314.2L526.3052 314.2Q526.41455 314.9344 526.8364 315.3094Q527.2583 315.6844 527.9458 315.6844Q528.6958 315.6844 529.1333 315.16876Q529.5708 314.65314 529.5708 313.7469Q529.5708 312.8875 529.10205 312.3719Q528.6333 311.85626 527.85205 311.85626Q527.1489 311.85626 526.7427 312.15314L526.4614 312.3875L525.5864 312.16876Z" fill-rule="nonzero"/><path fill="#757575" d="M552.65607 312.16876L553.09357 307.91876L557.46857 307.91876L557.46857 308.91876L554.01544 308.91876L553.7498 311.2469Q554.39044 310.8719 555.1873 310.8719Q556.34357 310.8719 557.03107 311.65314Q557.71857 312.41876 557.71857 313.73126Q557.71857 315.04376 556.9998 315.8094Q556.2967 316.575 555.01544 316.575Q553.89044 316.575 553.1717 315.95Q552.45294 315.3094 552.3592 314.2L553.3748 314.2Q553.4842 314.9344 553.90607 315.3094Q554.32794 315.6844 555.01544 315.6844Q555.76544 315.6844 556.20294 315.16876Q556.64044 314.65314 556.64044 313.7469Q556.64044 312.8875 556.1717 312.3719Q555.70294 311.85626 554.9217 311.85626Q554.21857 311.85626 553.8123 312.15314L553.53107 312.3875L552.65607 312.16876ZM562.71857 316.45L561.64044 316.45L561.64044 309.23126L559.45294 310.02814L559.45294 309.04376L562.5623 307.8719L562.71857 307.8719L562.71857 316.45Z" fill-rule="nonzero"/><path fill="#757575" d="M31.128124 37.55L29.2375 37.55L22.08125 26.596874L22.08125 37.55L20.20625 37.55L20.20625 23.33125L22.08125 23.33125L29.26875 34.33125L29.26875 23.33125L31.128124 23.33125L31.128124 37.55ZM40.440624 36.503124Q39.39375 37.753124 37.346874 37.753124Q35.659374 37.753124 34.76875 36.76875Q33.89375 35.784374 33.878124 33.8625L33.878124 26.9875L35.690624 26.9875L35.690624 33.815624Q35.690624 36.20625 37.64375 36.20625Q39.70625 36.20625 40.39375 34.675L40.39375 26.9875L42.20625 26.9875L42.20625 37.55L40.4875 37.55L40.440624 36.503124ZM46.6125 26.9875L46.659374 28.159374Q47.83125 26.784374 49.8 26.784374Q52.01875 26.784374 52.815624 28.4875Q53.346874 27.721874 54.190624 27.253124Q55.034374 26.784374 56.190624 26.784374Q59.659374 26.784374 59.721874 30.471874L59.721874 37.55L57.909374 37.55L57.909374 30.58125Q57.909374 29.440624 57.39375 28.878124Q56.878124 28.315624 55.659374 28.315624Q54.659374 28.315624 53.9875 28.925Q53.33125 29.51875 53.221874 30.534374L53.221874 37.55L51.409374 37.55L51.409374 30.628124Q51.409374 28.315624 49.14375 28.315624Q47.3625 28.315624 46.721874 29.83125L46.721874 37.55L44.909374 37.55L44.909374 26.9875L46.6125 26.9875ZM71.8625 32.378124Q71.8625 34.8 70.75313 36.284374Q69.64375 37.753124 67.76875 37.753124Q65.75313 37.753124 64.65938 36.33125L64.58125 37.55L62.925 37.55L62.925 22.55L64.72188 22.55L64.72188 28.14375Q65.81563 26.784374 67.7375 26.784374Q69.65938 26.784374 70.75313 28.2375Q71.8625 29.690624 71.8625 32.221874L71.8625 32.378124ZM70.05 32.175Q70.05 30.33125 69.33125 29.33125Q68.62813 28.315624 67.3 28.315624Q65.50313 28.315624 64.72188 29.9875L64.72188 34.55Q65.55 36.20625 67.31563 36.20625Q68.6125 36.20625 69.33125 35.20625Q70.05 34.20625 70.05 32.175ZM78.3 37.753124Q76.15938 37.753124 74.8 36.346874Q73.45625 34.925 73.45625 32.565624L73.45625 32.221874Q73.45625 30.659374 74.05 29.425Q74.65938 28.190624 75.7375 27.4875Q76.81563 26.784374 78.08125 26.784374Q80.14375 26.784374 81.28438 28.14375Q82.425 29.503124 82.425 32.034374L82.425 32.784374L75.26875 32.784374Q75.3 34.346874 76.175 35.315624Q77.05 36.26875 78.39375 36.26875Q79.3625 36.26875 80.01875 35.878124Q80.69063 35.4875 81.19063 34.846874L82.28438 35.70625Q80.95625 37.753124 78.3 37.753124ZM78.08125 28.26875Q76.9875 28.26875 76.2375 29.065624Q75.50313 29.8625 75.33125 31.3L80.6125 31.3L80.6125 31.159374Q80.53438 29.784374 79.8625 29.034374Q79.20625 28.26875 78.08125 28.26875ZM90.01875 28.596874Q89.6125 28.534374 89.14375 28.534374Q87.3625 28.534374 86.72188 30.05L86.72188 37.55L84.925 37.55L84.925 26.9875L86.675 26.9875L86.70625 28.20625Q87.59688 26.784374 89.22188 26.784374Q89.75313 26.784374 90.01875 26.925L90.01875 28.596874ZM96.44063 32.175Q96.44063 30.6125 97.05 29.378124Q97.65938 28.128124 98.7375 27.45625Q99.83125 26.784374 101.2375 26.784374Q103.39375 26.784374 104.72188 28.284374Q106.06563 29.76875 106.06563 32.253124L106.06563 32.378124Q106.06563 33.925 105.47188 35.159374Q104.87813 36.378124 103.76875 37.065624Q102.675 37.753124 101.25313 37.753124Q99.1125 37.753124 97.76875 36.253124Q96.44063 34.753124 96.44063 32.3L96.44063 32.175ZM98.25313 32.378124Q98.25313 34.14375 99.06563 35.20625Q99.89375 36.26875 101.25313 36.26875Q102.62813 36.26875 103.44063 35.190624Q104.25313 34.1125 104.25313 32.175Q104.25313 30.425 103.425 29.346874Q102.59688 28.26875 101.2375 28.26875Q99.89375 28.26875 99.06563 29.33125Q98.25313 30.39375 98.25313 32.378124ZM108.8 37.55L108.8 28.378124L107.14375 28.378124L107.14375 26.9875L108.8 26.9875L108.8 25.89375Q108.8 24.20625 109.70625 23.284374Q110.62813 22.346874 112.28438 22.346874Q112.90938 22.346874 113.51875 22.503124L113.425 23.971874Q112.97188 23.89375 112.45625 23.89375Q111.56563 23.89375 111.08125 24.409374Q110.6125 24.909374 110.6125 25.8625L110.6125 26.9875L112.8625 26.9875L112.8625 28.378124L110.6125 28.378124L110.6125 37.55L108.8 37.55ZM128.84688 32.378124Q128.84688 34.8 127.7375 36.284374Q126.64375 37.753124 124.75313 37.753124Q122.83125 37.753124 121.72188 36.51875L121.72188 41.6125L119.925 41.6125L119.925 26.9875L121.56563 26.9875L121.65938 28.159374Q122.75313 26.784374 124.72188 26.784374Q126.62813 26.784374 127.7375 28.221874Q128.84688 29.659374 128.84688 32.221874L128.84688 32.378124ZM127.03438 32.175Q127.03438 30.39375 126.26875 29.3625Q125.51875 28.315624 124.19063 28.315624Q122.55 28.315624 121.72188 29.76875L121.72188 34.83125Q122.53438 36.26875 124.20625 36.26875Q125.50313 36.26875 126.26875 35.2375Q127.03438 34.20625 127.03438 32.175ZM132.72188 28.26875Q133.925 26.784374 135.84688 26.784374Q139.20625 26.784374 139.22188 30.565624L139.22188 37.55L137.425 37.55L137.425 30.55Q137.40938 29.409374 136.89375 28.8625Q136.39375 28.315624 135.3 28.315624Q134.425 28.315624 133.75313 28.784374Q133.09688 29.253124 132.72188 30.01875L132.72188 37.55L130.925 37.55L130.925 22.55L132.72188 22.55L132.72188 28.26875ZM141.44063 32.175Q141.44063 30.6125 142.05 29.378124Q142.65938 28.128124 143.7375 27.45625Q144.83125 26.784374 146.2375 26.784374Q148.39375 26.784374 149.72188 28.284374Q151.06563 29.76875 151.06563 32.253124L151.06563 32.378124Q151.06563 33.925 150.47188 35.159374Q149.87813 36.378124 148.76875 37.065624Q147.675 37.753124 146.25313 37.753124Q144.1125 37.753124 142.76875 36.253124Q141.44063 34.753124 141.44063 32.3L141.44063 32.175ZM143.25313 32.378124Q143.25313 34.14375 144.06563 35.20625Q144.89375 36.26875 146.25313 36.26875Q147.62813 36.26875 148.44063 35.190624Q149.25313 34.1125 149.25313 32.175Q149.25313 30.425 148.425 29.346874Q147.59688 28.26875 146.2375 28.26875Q144.89375 28.26875 144.06563 29.33125Q143.25313 30.39375 143.25313 32.378124ZM155.3625 24.425L155.3625 26.9875L157.34688 26.9875L157.34688 28.378124L155.3625 28.378124L155.3625 34.925Q155.3625 35.565624 155.62813 35.89375Q155.89375 36.20625 156.53438 36.20625Q156.84688 36.20625 157.39375 36.08125L157.39375 37.55Q156.675 37.753124 156.00313 37.753124Q154.8 37.753124 154.175 37.01875Q153.56563 36.284374 153.56563 34.925L153.56563 28.378124L151.64375 28.378124L151.64375 26.9875L153.56563 26.9875L153.56563 24.425L155.3625 24.425ZM159.44063 32.175Q159.44063 30.6125 160.05 29.378124Q160.65938 28.128124 161.7375 27.45625Q162.83125 26.784374 164.2375 26.784374Q166.39375 26.784374 167.72188 28.284374Q169.06563 29.76875 169.06563 32.253124L169.06563 32.378124Q169.06563 33.925 168.47188 35.159374Q167.87813 36.378124 166.76875 37.065624Q165.675 37.753124 164.25313 37.753124Q162.1125 37.753124 160.76875 36.253124Q159.44063 34.753124 159.44063 32.3L159.44063 32.175ZM161.25313 32.378124Q161.25313 34.14375 162.06563 35.20625Q162.89375 36.26875 164.25313 36.26875Q165.62813 36.26875 166.44063 35.190624Q167.25313 34.1125 167.25313 32.175Q167.25313 30.425 166.425 29.346874Q165.59688 28.26875 164.2375 28.26875Q162.89375 28.26875 162.06563 29.33125Q161.25313 30.39375 161.25313 32.378124ZM177.06563 34.753124Q177.06563 34.01875 176.51875 33.6125Q175.97188 33.20625 174.59688 32.909374Q173.22188 32.6125 172.40938 32.20625Q171.6125 31.8 171.22188 31.2375Q170.84688 30.659374 170.84688 29.878124Q170.84688 28.58125 171.94063 27.690624Q173.03438 26.784374 174.75313 26.784374Q176.55 26.784374 177.65938 27.721874Q178.78438 28.64375 178.78438 30.08125L176.95625 30.08125Q176.95625 29.346874 176.33125 28.815624Q175.70625 28.26875 174.75313 28.26875Q173.75313 28.26875 173.19063 28.70625Q172.64375 29.128124 172.64375 29.83125Q172.64375 30.471874 173.15938 30.815624Q173.675 31.14375 175.03438 31.45625Q176.39375 31.753124 177.22188 32.175Q178.06563 32.58125 178.47188 33.175Q178.87813 33.76875 178.87813 34.6125Q178.87813 36.034374 177.7375 36.89375Q176.6125 37.753124 174.8 37.753124Q173.53438 37.753124 172.55 37.3Q171.58125 36.846874 171.01875 36.05Q170.47188 35.2375 170.47188 34.3L172.28438 34.3Q172.33125 35.20625 173.00313 35.7375Q173.69063 36.26875 174.8 36.26875Q175.83125 36.26875 176.44063 35.8625Q177.06563 35.440624 177.06563 34.753124ZM189.40938 35.096874L192.01875 26.9875L193.8625 26.9875L190.08125 37.55L188.70625 37.55L184.87813 26.9875L186.72188 26.9875L189.40938 35.096874ZM202.06563 34.753124Q202.06563 34.01875 201.51875 33.6125Q200.97188 33.20625 199.59688 32.909374Q198.22188 32.6125 197.40938 32.20625Q196.6125 31.8 196.22188 31.2375Q195.84688 30.659374 195.84688 29.878124Q195.84688 28.58125 196.94063 27.690624Q198.03438 26.784374 199.75313 26.784374Q201.55 26.784374 202.65938 27.721874Q203.78438 28.64375 203.78438 30.08125L201.95625 30.08125Q201.95625 29.346874 201.33125 28.815624Q200.70625 28.26875 199.75313 28.26875Q198.75313 28.26875 198.19063 28.70625Q197.64375 29.128124 197.64375 29.83125Q197.64375 30.471874 198.15938 30.815624Q198.675 31.14375 200.03438 31.45625Q201.39375 31.753124 202.22188 32.175Q203.06563 32.58125 203.47188 33.175Q203.87813 33.76875 203.87813 34.6125Q203.87813 36.034374 202.7375 36.89375Q201.6125 37.753124 199.8 37.753124Q198.53438 37.753124 197.55 37.3Q196.58125 36.846874 196.01875 36.05Q195.47188 35.2375 195.47188 34.3L197.28438 34.3Q197.33125 35.20625 198.00313 35.7375Q198.69063 36.26875 199.8 36.26875Q200.83125 36.26875 201.44063 35.8625Q202.06563 35.440624 202.06563 34.753124ZM221.01875 24.878124L216.45625 24.878124L216.45625 37.55L214.59688 37.55L214.59688 24.878124L210.03438 24.878124L210.03438 23.33125L221.01875 23.33125L221.01875 24.878124ZM229.44063 37.55Q229.28438 37.2375 229.19063 36.440624Q227.925 37.753124 226.175 37.753124Q224.6125 37.753124 223.6125 36.8625Q222.6125 35.971874 222.6125 34.6125Q222.6125 32.971874 223.8625 32.065624Q225.12813 31.14375 227.39375 31.14375L229.15938 31.14375L229.15938 30.315624Q229.15938 29.3625 228.58125 28.8Q228.01875 28.2375 226.925 28.2375Q225.95625 28.2375 225.3 28.7375Q224.64375 29.221874 224.64375 29.909374L222.83125 29.909374Q222.83125 29.128124 223.39375 28.39375Q223.95625 27.64375 224.90938 27.221874Q225.87813 26.784374 227.03438 26.784374Q228.8625 26.784374 229.89375 27.70625Q230.925 28.6125 230.97188 30.221874L230.97188 35.08125Q230.97188 36.534374 231.33125 37.39375L231.33125 37.55L229.44063 37.55ZM226.44063 36.175Q227.3 36.175 228.05 35.7375Q228.81563 35.3 229.15938 34.596874L229.15938 32.425L227.7375 32.425Q224.425 32.425 224.425 34.3625Q224.425 35.221874 224.9875 35.70625Q225.55 36.175 226.44063 36.175ZM233.4875 32.175Q233.4875 29.70625 234.62813 28.253124Q235.76875 26.784374 237.65938 26.784374Q239.59688 26.784374 240.675 28.159374L240.76875 26.9875L242.40938 26.9875L242.40938 37.3Q242.40938 39.346874 241.19063 40.51875Q239.9875 41.70625 237.925 41.70625Q236.78438 41.70625 235.69063 41.221874Q234.59688 40.7375 234.01875 39.878124L234.95625 38.8Q236.12813 40.2375 237.8 40.2375Q239.12813 40.2375 239.8625 39.4875Q240.59688 38.753124 240.59688 37.409374L240.59688 36.4875Q239.51875 37.753124 237.64375 37.753124Q235.78438 37.753124 234.62813 36.253124Q233.4875 34.753124 233.4875 32.175ZM235.3 32.378124Q235.3 34.175 236.03438 35.190624Q236.76875 36.20625 238.08125 36.20625Q239.8 36.20625 240.59688 34.659374L240.59688 29.83125Q239.76875 28.315624 238.1125 28.315624Q236.78438 28.315624 236.03438 29.346874Q235.3 30.378124 235.3 32.378124ZM254.15938 36.26875Q255.12813 36.26875 255.84688 35.690624Q256.5656 35.096874 256.64374 34.221874L258.3625 34.221874Q258.3 35.128124 257.72186 35.95625Q257.15936 36.76875 256.1906 37.26875Q255.2375 37.753124 254.15938 37.753124Q252.00313 37.753124 250.72188 36.315624Q249.45625 34.8625 249.45625 32.3625L249.45625 32.065624Q249.45625 30.51875 250.01875 29.315624Q250.58125 28.1125 251.64375 27.45625Q252.70625 26.784374 254.14375 26.784374Q255.925 26.784374 257.09686 27.846874Q258.28436 28.909374 258.3625 30.6125L256.64374 30.6125Q256.5656 29.596874 255.8625 28.940624Q255.175 28.26875 254.14375 28.26875Q252.76875 28.26875 252.00313 29.26875Q251.25313 30.253124 251.25313 32.128124L251.25313 32.471874Q251.25313 34.3 252.00313 35.284374Q252.75313 36.26875 254.15938 36.26875ZM259.4406 32.175Q259.4406 30.6125 260.05 29.378124Q260.65936 28.128124 261.7375 27.45625Q262.83124 26.784374 264.2375 26.784374Q266.39374 26.784374 267.72186 28.284374Q269.0656 29.76875 269.0656 32.253124L269.0656 32.378124Q269.0656 33.925 268.47186 35.159374Q267.8781 36.378124 266.76874 37.065624Q265.675 37.753124 264.2531 37.753124Q262.1125 37.753124 260.76874 36.253124Q259.4406 34.753124 259.4406 32.3L259.4406 32.175ZM261.2531 32.378124Q261.2531 34.14375 262.0656 35.20625Q262.89374 36.26875 264.2531 36.26875Q265.6281 36.26875 266.4406 35.190624Q267.2531 34.1125 267.2531 32.175Q267.2531 30.425 266.425 29.346874Q265.59686 28.26875 264.2375 28.26875Q262.89374 28.26875 262.0656 29.33125Q261.2531 30.39375 261.2531 32.378124ZM277.4406 36.503124Q276.39374 37.753124 274.34686 37.753124Q272.65936 37.753124 271.76874 36.76875Q270.89374 35.784374 270.8781 33.8625L270.8781 26.9875L272.6906 26.9875L272.6906 33.815624Q272.6906 36.20625 274.64374 36.20625Q276.70624 36.20625 277.39374 34.675L277.39374 26.9875L279.20624 26.9875L279.20624 37.55L277.4875 37.55L277.4406 36.503124ZM283.6281 26.9875L283.6906 28.315624Q284.89374 26.784374 286.84686 26.784374Q290.20624 26.784374 290.22186 30.565624L290.22186 37.55L288.425 37.55L288.425 30.55Q288.40936 29.409374 287.89374 28.8625Q287.39374 28.315624 286.3 28.315624Q285.425 28.315624 284.7531 28.784374Q284.09686 29.253124 283.72186 30.01875L283.72186 37.55L281.925 37.55L281.925 26.9875L283.6281 26.9875ZM295.3625 24.425L295.3625 26.9875L297.34686 26.9875L297.34686 28.378124L295.3625 28.378124L295.3625 34.925Q295.3625 35.565624 295.6281 35.89375Q295.89374 36.20625 296.53436 36.20625Q296.84686 36.20625 297.39374 36.08125L297.39374 37.55Q296.675 37.753124 296.0031 37.753124Q294.8 37.753124 294.175 37.01875Q293.5656 36.284374 293.5656 34.925L293.5656 28.378124L291.64374 28.378124L291.64374 26.9875L293.5656 26.9875L293.5656 24.425L295.3625 24.425Z" fill-rule="nonzero"/></svg>